<svg t="1705371629071" class="icon" viewBox="0 0 1024 1024" version="1.1" xmlns="http://www.w3.org/2000/svg" p-id="10882" width="32" height="32"><path d="M513.3 773.1c-161.5 0-292.8-131.4-292.8-292.8V229.7c0-71 57.7-128.7 128.7-128.7h328.3c70.9 0 128.7 57.7 128.7 128.7v250.5c0 161.5-131.4 292.9-292.9 292.9zM349.2 191.2c-21.3 0-38.6 17.3-38.6 38.6v250.5c0 111.7 91 202.7 202.7 202.7s202.8-91 202.8-202.8V229.7c0-21.3-17.3-38.6-38.6-38.6H349.2zM626 928.2H400.7c-24.9 0-45-20.2-45-45 0-24.9 20.2-45 45-45H626c24.9 0 45 20.2 45 45s-20.1 45-45 45z" p-id="10883"></path><path d="M827.1 506.1h-66c-24.9 0-45-20.2-45-45V284.6c0-24.9 20.2-45 45-45h66c73.5 0 133.3 59.8 133.3 133.3 0 73.4-59.8 133.2-133.3 133.2zM806.2 416h20.9c23.8 0 43.2-19.4 43.2-43.2 0-23.8-19.4-43.2-43.2-43.2h-20.9V416zM265.6 506.1h-66c-73.5 0-133.3-59.8-133.3-133.3 0-73.5 59.8-133.3 133.3-133.3h66c24.9 0 45 20.2 45 45v176.4c0 25.1-20.1 45.2-45 45.2z m-66-176.4c-23.8 0-43.2 19.4-43.2 43.2 0 23.8 19.4 43.2 43.2 43.2h20.9v-86.3h-20.9zM513.3 928.2c-24.9 0-45-20.2-45-45V728c0-24.9 20.2-45 45-45s45 20.2 45 45v155.2c0.1 24.8-20.1 45-45 45z" p-id="10884"></path></svg>