<?xml version="1.0" standalone="no"?><!DOCTYPE svg PUBLIC "-//W3C//DTD SVG 1.1//EN" "http://www.w3.org/Graphics/SVG/1.1/DTD/svg11.dtd"><svg t="1703005643684" class="icon" viewBox="0 0 1024 1024" version="1.1" xmlns="http://www.w3.org/2000/svg" p-id="18186" width="32" height="32" xmlns:xlink="http://www.w3.org/1999/xlink"><path d="M899.072 463.238095c1.999238 15.969524 3.023238 32.256 3.023238 48.761905 0 215.454476-174.640762 390.095238-390.095238 390.095238-103.862857 0-198.265905-40.594286-268.190476-106.788571V902.095238H170.666667l0.024381-170.666667L170.666667 658.285714h243.809523v73.142857h-131.169523c57.685333 60.123429 138.825143 97.52381 228.693333 97.52381 175.055238 0 316.952381-141.897143 316.952381-316.952381a319.390476 319.390476 0 0 0-3.730286-48.761905h73.874286zM853.333333 121.904762l-0.024381 170.666667L853.333333 365.714286H609.52381v-73.142857h131.193904A316.025905 316.025905 0 0 0 512 195.047619C336.944762 195.047619 195.047619 336.944762 195.047619 512c0 16.579048 1.26781 32.889905 3.730286 48.761905h-73.874286A393.947429 393.947429 0 0 1 121.904762 512c0-215.454476 174.640762-390.095238 390.095238-390.095238 103.862857 0 198.290286 40.618667 268.190476 106.812952V121.904762h73.142857z" p-id="18187"></path></svg>