<svg t="1744639583281" class="icon" viewBox="0 0 1024 1024" version="1.1" xmlns="http://www.w3.org/2000/svg" p-id="16101" width="32" height="32"><path d="M449.4 431.4l112.8 32.2c17.6 5 29.8 21.2 29.8 39.4 0 22.6-18.4 41-41 41h-73.8c-16.4 0-32.2-5.2-45.2-14.6-6-4.4-14.4-3-19.6 2.4l-22.8 22.8c-7 7-5.8 18.4 2 24.4 24.6 18.8 54.4 29 85.8 29h2.8v48c0 8.8 7.2 16 16 16h32c8.8 0 16-7.2 16-16v-48h2.8c45.6 0 88.6-27.2 103.4-70.4 20.2-59.2-14.6-119.6-70.2-135.6L462 368.2c-17.6-5-29.8-21.2-29.8-39.4 0-22.6 18.4-41 41-41h73.8c16.4 0 32.2 5.2 45.2 14.6 6 4.4 14.4 3 19.6-2.4l22.8-22.8c7-7 5.8-18.4-2-24.4-24.6-18.8-54.4-29-85.8-29H544V176c0-8.8-7.2-16-16-16h-32c-8.8 0-16 7.2-16 16v48h-7c-61.2 0-110.2 52.6-104.4 115 4 44.2 38 80.2 80.8 92.4zM960 576h-64c20.6-49.2 32-103.2 32-160C928 186.2 741.8 0 512 0S96 186.2 96 416c0 56.8 11.4 110.8 32 160H64c-35.4 0-64 28.8-64 64v320c0 35.2 28.6 64 64 64h896c35.4 0 64-28.8 64-64V640c0-35.2-28.6-64-64-64zM512 64c194 0 352 158 352 352s-158 352-352 352S160 610 160 416 318 64 512 64z m448 896H64V640h97.8c33.2 51.6 77.2 95.4 129.2 128H208c-8.8 0-16 7.2-16 16v32c0 8.8 7.2 16 16 16h608c8.8 0 16-7.2 16-16v-32c0-8.8-7.2-16-16-16h-83c52-32.6 96-76.4 129.2-128H960v320z" p-id="16102"></path></svg>