<svg t="1706089731772" class="icon" viewBox="0 0 1024 1024" version="1.1" xmlns="http://www.w3.org/2000/svg" p-id="25061" width="32" height="32"><path d="M512 0C229.224296 0 0 229.224296 0 512c0 282.775704 229.224296 512 512 512 282.775704 0 512-229.224296 512-512C1024 229.224296 794.775704 0 512 0zM798.72 311.296l-285.847704 298.287407-288.559407-298.287407L798.72 311.296zM204.8 354.702222l159.706074 162.721185L204.8 677.072593 204.8 354.702222zM224.881778 720.896l169.870222-176.82963 117.475556 119.694222 115.730963-119.694222 171.595852 176.82963L224.881778 720.896zM819.2 677.072593l-164.067556-160.085333 164.067556-164.67437L819.2 677.072593z" p-id="25062"></path></svg>