<svg t="1706777919891" class="icon" viewBox="0 0 1024 1024" version="1.1" xmlns="http://www.w3.org/2000/svg" p-id="20672" width="32" height="32"><path d="M669.995 762.027L632.02 662.016H391.936l-37.973 99.968c-6.656 18.688-20.011 28.032-40.022 28.032-13.312 0-23.978-6.016-32-18.005-9.301-12.032-11.306-24.662-5.973-37.974L457.941 272c9.387-25.344 27.35-37.973 54.016-37.973S556.63 246.656 565.973 272l181.974 461.995a38.827 38.827 0 0 1-3.968 37.973c-10.667 12.032-22.016 18.048-34.006 18.048-20.053 0-33.365-9.387-40.021-28.032zM424.02 576H599.98L512 340.01 423.979 576zM853.973 86.016c23.979 0 43.947 8.661 59.99 25.984 16 16 23.978 35.328 23.978 58.027v683.946c0 24.022-7.978 44.032-23.978 60.032s-36.011 23.979-59.99 23.979H169.984c-22.613 0-41.984-7.979-57.984-23.979a78.25 78.25 0 0 1-26.027-59.989V169.984C85.973 147.371 94.677 128 112 112c16-17.323 35.328-26.027 58.027-26.027h683.946z m-640 83.968a42.325 42.325 0 0 0-31.018 13.013 42.325 42.325 0 0 0-13.014 31.019v595.968c0 12.032 4.352 22.357 13.014 31.019a42.325 42.325 0 0 0 31.018 13.013h595.968a42.325 42.325 0 0 0 31.019-13.013 42.325 42.325 0 0 0 13.013-31.019V214.016a42.325 42.325 0 0 0-13.013-31.019 42.325 42.325 0 0 0-31.019-13.013H214.016z" p-id="20673"></path></svg>