<svg t="1706089570740" class="icon" viewBox="0 0 1032 1024" version="1.1" xmlns="http://www.w3.org/2000/svg" p-id="22302" width="32" height="32"><path d="M514.285714 1024a514.285714 514.285714 0 0 1-514.285714-509.714286 514.285714 514.285714 0 0 1 1028.571429 0 514.285714 514.285714 0 0 1-514.285715 509.714286zM514.285714 61.142857a457.142857 457.142857 0 0 0-457.142857 453.142857 457.142857 457.142857 0 0 0 914.285714 0A457.142857 457.142857 0 0 0 514.285714 61.142857z" p-id="22303"></path><path d="M510.285714 486.857143a28.571429 28.571429 0 0 1-18.857143-6.857143L356.571429 359.428571a28.571429 28.571429 0 0 1-8-29.714285l36-120.571429a28.571429 28.571429 0 0 1 27.428571-20h189.714286a28 28 0 0 1 26.857143 20.571429l36 124.571428a28 28 0 0 1-8 28.571429l-127.428572 114.285714a28.571429 28.571429 0 0 1-18.857143 9.714286zM408.571429 328.571429l101.714285 91.428571 94.857143-86.857143-25.142857-86.857143H433.142857z" p-id="22304"></path><path d="M506.857143 909.142857a28.571429 28.571429 0 0 1-21.714286-9.714286L298.285714 684a28 28 0 0 1-4.571428-30.285714l91.428571-206.857143 52 22.857143-84 190.285714 153.714286 177.142857 148.571428-171.428571-65.714285-198.285715 54.285714-18.285714 70.857143 211.428572a28 28 0 0 1-5.714286 27.428571l-180.571428 211.428571a28.571429 28.571429 0 0 1-21.714286 9.714286zM675.142857 442.4l53.257143-20.742857 41.885714 107.542857-53.257143 20.742857z" p-id="22305"></path></svg>