<svg t="1711431586971" class="icon" viewBox="0 0 1024 1024" version="1.1" xmlns="http://www.w3.org/2000/svg" p-id="1455" width="32" height="32"><path d="M550.034286 633.904762v154.331428l58.392381-56.661333 50.95619 52.46781-144.505905 140.288-147.065904-140.01981 50.419809-52.979809 58.684953 55.832381-0.024381-153.283048h73.142857z m234.008381-269.287619l140.288 144.505905-140.01981 147.065904-52.979809-50.419809 55.832381-58.684953H633.904762v-73.142857h154.331428l-56.661333-58.368 52.46781-50.95619z m-544.231619 0l52.467809 50.95619-56.685714 58.368H390.095238v73.142857H236.690286l55.832381 58.684953-52.955429 50.419809-140.019809-147.065904 140.263619-144.505905zM514.876952 99.669333l144.505905 140.288-50.95619 52.46781-58.368-56.661333L550.034286 390.095238h-73.142857V236.81219l-58.660572 55.832381-50.419809-52.979809 147.065904-140.01981z" p-id="1456"></path></svg>