<svg t="1706119034388" class="icon" viewBox="0 0 1024 1024" version="1.1" xmlns="http://www.w3.org/2000/svg" p-id="5437" width="32" height="32"><path d="M224 537.344h-85.333333a96 96 0 0 0-96 96V810.666667a96 96 0 0 0 96 96h85.333333A96 96 0 0 0 320 810.666667v-177.344a96 96 0 0 0-96-96z m0 74.666667a21.333333 21.333333 0 0 1 21.333333 21.333333V810.666667a21.333333 21.333333 0 0 1-21.333333 21.333333h-85.333333a21.333333 21.333333 0 0 1-21.333334-21.333333v-177.344a21.333333 21.333333 0 0 1 21.333334-21.333334h85.333333zM885.333333 425.344h-85.333333a96 96 0 0 0-96 96V810.666667a96 96 0 0 0 96 96h85.333333A96 96 0 0 0 981.333333 810.666667V521.322667a96 96 0 0 0-96-96z m0 74.666667a21.333333 21.333333 0 0 1 21.333334 21.333333V810.666667a21.333333 21.333333 0 0 1-21.333334 21.333333h-85.333333a21.333333 21.333333 0 0 1-21.333333-21.333333V521.322667a21.333333 21.333333 0 0 1 21.333333-21.333334h85.333333zM554.666667 117.333333h-85.333334a96 96 0 0 0-96 96v597.333334a96 96 0 0 0 96 96h85.333334a96 96 0 0 0 96-96V213.333333A96 96 0 0 0 554.666667 117.333333zM554.666667 192a21.333333 21.333333 0 0 1 21.333333 21.333333v597.333334a21.333333 21.333333 0 0 1-21.333333 21.333333h-85.333334a21.333333 21.333333 0 0 1-21.333333-21.333333V213.333333a21.333333 21.333333 0 0 1 21.333333-21.333333h85.333334z" p-id="5438"></path></svg>