<svg t="1705370836544" class="icon" viewBox="0 0 1024 1024" version="1.1" xmlns="http://www.w3.org/2000/svg" p-id="5245" width="32" height="32"><path d="M271.9 288c17.6 0 32 14.4 32 32v479.5c0 17.6-14.4 32-32 32h-94.4c-17.6 0-32-14.4-32-32V320c0-17.6 14.4-32 32-32h94.4m0-32h-94.4c-35.3 0-64 28.7-64 64v479.5c0 35.3 28.7 64 64 64h94.4c35.3 0 64-28.7 64-64V320c0-35.4-28.6-64-64-64zM557.4 130.2c17.6 0 32 14.4 32 32v637.3c0 17.6-14.4 32-32 32H463c-17.6 0-32-14.4-32-32V162.2c0-17.6 14.4-32 32-32h94.4m0-32H463c-35.3 0-64 28.7-64 64v637.3c0 35.3 28.7 64 64 64h94.4c35.3 0 64-28.7 64-64V162.2c0-35.4-28.6-64-64-64zM847.2 447.8c17.6 0 32 14.4 32 32v319.6c0 17.6-14.4 32-32 32h-94.4c-17.6 0-32-14.4-32-32V479.8c0-17.6 14.4-32 32-32h94.4m0-32h-94.4c-35.3 0-64 28.7-64 64v319.6c0 35.3 28.7 64 64 64h94.4c35.3 0 64-28.7 64-64V479.8c0-35.3-28.7-64-64-64zM898.1 925.6H129.5c-8.8 0-16 7.2-16 16s7.2 16 16 16h768.6c8.8 0 16-7.2 16-16s-7.2-16-16-16z" p-id="5246"></path></svg>