<svg t="1705383565333" class="icon" viewBox="0 0 1024 1024" version="1.1" xmlns="http://www.w3.org/2000/svg" p-id="12935" width="32" height="32"><path d="M638.46 298.5h-369a30 30 0 0 0 0 60h369a30 30 0 0 0 0-60zM651.44 539.05L665.51 525a30 30 0 0 0-27.05-43h-369a30 30 0 0 0 0 60h369a29.87 29.87 0 0 0 12.98-2.95zM538.1 665.5H269.46a30 30 0 0 0 0 60H510.4zM623.11 715.78l-21.05 9.72h36.4A30 30 0 0 0 662 676.9z"  p-id="12936"></path><path d="M730 608.94V774a49.06 49.06 0 0 1-49 49H227a49.06 49.06 0 0 1-49-49V250a49.06 49.06 0 0 1 49-49h454a49.06 49.06 0 0 1 49 49v210.53l60-60V250a109.12 109.12 0 0 0-109-109H227a109.12 109.12 0 0 0-109 109v524a109.12 109.12 0 0 0 109 109h454a109.12 109.12 0 0 0 109-109V548.94zM930.73 401.81A48 48 0 0 0 862.89 334z"  p-id="12937"></path><path d="M558.106 638.704l292.742-292.742 67.882 67.882-292.742 292.743zM513.06 730.84l-12.87 26.63a5.37 5.37 0 0 0 7.18 7.18L534 751.78zM541.63 748.09l68.64-33.18-60.35-60.35-33.17 68.65 24.88 24.88z"  p-id="12938"></path></svg>