<?xml version="1.0" standalone="no"?><!DOCTYPE svg PUBLIC "-//W3C//DTD SVG 1.1//EN" "http://www.w3.org/Graphics/SVG/1.1/DTD/svg11.dtd"><svg t="1703667216887" class="icon" viewBox="0 0 1024 1024" version="1.1" xmlns="http://www.w3.org/2000/svg" p-id="8401" xmlns:xlink="http://www.w3.org/1999/xlink" width="32" height="32"><path d="M701.44 592.554667a85.333333 85.333333 0 0 0 0-144.384l-229.290667-144.426667C415.317333 267.989333 341.333333 308.821333 341.333333 375.978667v288.810666c0 67.157333 73.984 107.946667 130.816 72.192l229.248-144.426666z m-45.482667-72.192L426.666667 664.789333V375.893333l229.290666 144.426667z" p-id="8402"></path><path d="M509.952 128a386.090667 386.090667 0 0 0-304.085333 147.413333H256a42.666667 42.666667 0 1 1 0 85.333334H128a42.666667 42.666667 0 0 1-42.666667-42.666667V162.901333a42.666667 42.666667 0 0 1 85.333334 0v23.296A470.997333 470.997333 0 0 1 509.952 42.666667C770.133333 42.666667 981.333333 252.586667 981.333333 512s-211.2 469.333333-471.381333 469.333333a471.594667 471.594667 0 0 1-419.882667-255.914666 42.666667 42.666667 0 1 1 75.904-38.954667A386.261333 386.261333 0 0 0 509.952 896C723.370667 896 896 723.882667 896 512s-172.629333-384-386.048-384z" p-id="8403"></path></svg>