<svg t="1705383615197" class="icon" viewBox="0 0 1024 1024" version="1.1" xmlns="http://www.w3.org/2000/svg" p-id="13900" width="32" height="32"><path d="M943.776 260.16c-10.016-5.696-22.304-5.568-32.256 0.416l-160 96c-1.088 0.672-1.76 1.728-2.752 2.496-1.76 1.376-3.392 2.72-4.832 4.416-1.344 1.568-2.368 3.232-3.36 4.992-0.992 1.76-1.888 3.488-2.528 5.44-0.704 2.112-1.024 4.192-1.28 6.4C736.608 381.6 736 382.688 736 384l0 352c0 17.664-14.336 32-32 32L160 768c-17.632 0-32-14.336-32-32L128 288c0-17.632 14.368-32 32-32l544 0c17.696 0 32-14.336 32-32s-14.304-32-32-32L160 192C107.072 192 64 235.072 64 288l0 448c0 52.928 43.072 96 96 96l544 0c52.928 0 96-43.072 96-96l0-38.88 111.648 66.368C916.672 766.496 922.336 768 928 768c5.472 0 10.912-1.408 15.808-4.192C953.824 758.112 960 747.488 960 736L960 288C960 276.48 953.824 265.824 943.776 260.16zM896 679.744l-96-57.024 0-220.608 96-57.6L896 679.744z"  p-id="13901"></path><path d="M192 384c0 35.296 28.704 64 64 64s64-28.704 64-64-28.704-64-64-64S192 348.704 192 384z"  p-id="13902"></path></svg>