<?xml version="1.0" standalone="no"?><!DOCTYPE svg PUBLIC "-//W3C//DTD SVG 1.1//EN" "http://www.w3.org/Graphics/SVG/1.1/DTD/svg11.dtd"><svg t="1703004894736" class="icon" viewBox="0 0 1024 1024" version="1.1" xmlns="http://www.w3.org/2000/svg" p-id="5558" xmlns:xlink="http://www.w3.org/1999/xlink" width="32" height="32"><path d="M392.533333 921.6h-12.8a401.066667 401.066667 0 0 1-149.333333-85.333333c-17.066667-12.8-17.066667-38.4-4.266667-59.733334 17.066667-21.333333 17.066667-46.933333 4.266667-72.533333l-21.333333-34.133333c-12.8-21.333333-38.4-34.133333-64-29.866667-21.333333 4.266667-42.666667-12.8-46.933334-34.133333-8.533333-34.133333-12.8-64-12.8-93.866667 0-29.866667 4.266667-59.733333 8.533334-85.333333 4.266667-21.333333 25.6-38.4 46.933333-34.133334 25.6 4.266667 51.2-8.533333 64-34.133333l21.333333-34.133333c12.8-25.6 12.8-51.2-4.266666-72.533334-12.8-17.066667-12.8-42.666667 4.266666-59.733333 42.666667-38.4 93.866667-68.266667 149.333334-85.333333 21.333333-8.533333 42.666667 4.266667 51.2 25.6 12.8 21.333333 38.4 38.4 64 38.4h42.666666c25.6 0 51.2-17.066667 59.733334-38.4 8.533333-21.333333 29.866667-29.866667 51.2-25.6 55.466667 17.066667 106.666667 46.933333 149.333333 85.333333 17.066667 12.8 17.066667 38.4 4.266667 59.733333-17.066667 21.333333-17.066667 46.933333-4.266667 72.533334l21.333333 34.133333c12.8 21.333333 38.4 34.133333 64 29.866667 21.333333-4.266667 42.666667 12.8 46.933334 34.133333 8.533333 29.866667 12.8 59.733333 12.8 89.6 0 29.866667-4.266667 59.733333-8.533334 85.333333-4.266667 21.333333-25.6 38.4-46.933333 34.133334-25.6-4.266667-51.2 8.533333-64 29.866666l-21.333333 34.133334c-12.8 21.333333-12.8 51.2 4.266666 72.533333 12.8 17.066667 12.8 42.666667-4.266666 59.733333-42.666667 38.4-93.866667 68.266667-149.333334 85.333334-21.333333 8.533333-42.666667-4.266667-51.2-25.6-8.533333-25.6-34.133333-38.4-59.733333-38.4h-42.666667c-25.6 0-51.2 17.066667-59.733333 38.4-8.533333 21.333333-25.6 34.133333-42.666667 34.133333z m-81.066666-132.266667l64 38.4c25.6-38.4 68.266667-59.733333 115.2-59.733333h42.666666c46.933333 0 89.6 21.333333 115.2 55.466667 21.333333-8.533333 42.666667-21.333333 64-38.4-17.066667-42.666667-12.8-89.6 8.533334-128l21.333333-34.133334c25.6-42.666667 64-68.266667 110.933333-72.533333V512v-38.4c-42.666667-8.533333-85.333333-34.133333-106.666666-72.533333l-21.333334-34.133334c-21.333333-38.4-25.6-89.6-8.533333-128l-64-38.4c-29.866667 34.133333-72.533333 55.466667-119.466667 55.466667h-42.666666c-46.933333 0-89.6-21.333333-115.2-55.466667-21.333333 8.533333-42.666667 21.333333-64 38.4 17.066667 42.666667 12.8 89.6-8.533334 128l-21.333333 34.133334C256 443.733333 217.6 469.333333 170.666667 473.6v76.8c42.666667 8.533333 85.333333 34.133333 106.666666 72.533333l21.333334 34.133334c25.6 42.666667 29.866667 89.6 12.8 132.266666z" p-id="5559"></path><path d="M512 512m-128 0a128 128 0 1 0 256 0 128 128 0 1 0-256 0Z" p-id="5560"></path></svg>