<svg t="1703756007993" class="icon" viewBox="0 0 1024 1024" version="1.1" xmlns="http://www.w3.org/2000/svg" p-id="17381" width="32" height="32"><path d="M512 936a424.1 424.1 0 0 1-165.05-814.66 424.1 424.1 0 0 1 330.1 781.33A421.38 421.38 0 0 1 512 936z m0-768c-189.68 0-344 154.32-344 344s154.32 344 344 344 344-154.32 344-344-154.32-344-344-344z" p-id="17382"></path><path d="M529.48 536.5L362.4 633a28.39 28.39 0 0 1-42.58-24.59V415.45a28.39 28.39 0 0 1 42.58-24.59l167.08 96.47a28.39 28.39 0 0 1 0 49.17z" p-id="17383"></path><path d="M736 536.5L568.91 633a28.39 28.39 0 0 1-42.58-24.59V415.45a28.39 28.39 0 0 1 42.58-24.59L736 487.33a28.39 28.39 0 0 1 0 49.17z" p-id="17384"></path></svg>