<?xml version="1.0" standalone="no"?><!DOCTYPE svg PUBLIC "-//W3C//DTD SVG 1.1//EN" "http://www.w3.org/Graphics/SVG/1.1/DTD/svg11.dtd"><svg t="1703667030422" class="icon" viewBox="0 0 1024 1024" version="1.1" xmlns="http://www.w3.org/2000/svg" p-id="1606" xmlns:xlink="http://www.w3.org/1999/xlink" width="200" height="200"><path d="M512 944C273.92 944 80 750.08 80 512S273.92 80 512 80 944 273.92 944 512 750.08 944 512 944z m0-768C326.72 176 176 326.72 176 512S326.72 848 512 848 848 697.28 848 512 697.28 176 512 176z" p-id="1607"></path><path d="M408.96 512v-97.92c0-38.72 41.92-62.72 75.2-43.52l84.8 48.96 84.8 48.96c33.6 19.2 33.6 67.52 0 87.04l-84.8 48.96-84.8 48.96c-33.6 19.2-75.2-4.8-75.2-43.52V512z" p-id="1608"></path></svg>