<svg t="1708245132601" class="icon" viewBox="0 0 1024 1024" version="1.1" xmlns="http://www.w3.org/2000/svg" p-id="6302" width="32" height="32"><path d="M512.1 188c43.5 0 85.8 8.6 125.7 25.5 38.6 16.4 73.3 39.8 103.2 69.7 29.9 29.9 53.3 64.6 69.7 103.2 16.9 39.9 25.5 82.2 25.5 125.7s-8.6 85.8-25.5 125.7c-16.4 38.6-39.8 73.3-69.7 103.2-29.9 29.9-64.6 53.3-103.2 69.7-39.9 16.9-82.2 25.5-125.7 25.5s-85.8-8.6-125.7-25.5c-38.6-16.4-73.3-39.8-103.2-69.7-29.9-29.9-53.3-64.6-69.7-103.2-16.9-39.9-25.5-82.2-25.5-125.7s8.6-85.8 25.5-125.7c16.4-38.6 39.8-73.3 69.7-103.2 29.9-29.9 64.6-53.3 103.2-69.7 39.9-16.9 82.2-25.5 125.7-25.5m0-60C300.9 128 128 300.8 128 512.1c0 211.2 172.8 384.1 384.1 384.1 211.2 0 384.1-172.8 384.1-384.1S723.3 128 512.1 128z" p-id="6303"></path><path d="M512 604c-16.5 0-30-13.5-30-30V336c0-16.5 13.5-30 30-30s30 13.5 30 30v238c0 16.5-13.5 30-30 30z" p-id="6304"></path><path d="M512 675m-35 0a35 35 0 1 0 70 0 35 35 0 1 0-70 0Z" p-id="6305"></path></svg>