<svg t="1705906993694" class="icon" viewBox="0 0 1024 1024" version="1.1" xmlns="http://www.w3.org/2000/svg" p-id="15468" width="32" height="32"><path d="M512 512a128 128 0 1 1 0-256 128 128 0 0 1 0 256z m0-85.333333a42.666667 42.666667 0 1 0 0-85.333334 42.666667 42.666667 0 0 0 0 85.333334z m341.333333 85.333333a341.333333 341.333333 0 1 0-682.666666 0c0 131.925333 72.874667 246.186667 189.354666 302.976a42.666667 42.666667 0 0 1-37.376 76.714667C177.066667 820.736 85.333333 676.864 85.333333 512 85.333333 276.352 276.352 85.333333 512 85.333333s426.666667 191.018667 426.666667 426.666667-191.018667 426.666667-426.666667 426.666667a42.666667 42.666667 0 0 1-42.666667-42.666667v-298.709333a42.666667 42.666667 0 1 1 85.333334 0v253.44A341.376 341.376 0 0 0 853.333333 512z" p-id="15469"></path></svg>